<?xml version="1.0" standalone="no"?>
<!DOCTYPE svg PUBLIC "-//W3C//DTD SVG 20010904//EN"
 "http://www.w3.org/TR/2001/REC-SVG-20010904/DTD/svg10.dtd">
<svg version="1.0" xmlns="http://www.w3.org/2000/svg"
 width="512.000000pt" height="512.000000pt" viewBox="0 0 512.000000 512.000000"
 preserveAspectRatio="xMidYMid meet">
<metadata>
Created by potrace 1.11, written by Peter Selinger 2001-2013
</metadata>
<g transform="translate(0.000000,512.000000) scale(0.100000,-0.100000)"
fill="#000000" stroke="none">
<path d="M0 3953 l0 -1165 23 6 c61 15 143 17 256 7 139 -13 177 -27 230 -83
31 -33 44 -39 108 -49 l72 -12 -21 -51 c-38 -94 -90 -257 -85 -263 5 -5 507
-31 615 -33 l42 0 0 -395 0 -395 -192 -1 c-106 -1 -239 -4 -295 -8 l-103 -6
123 -160 c452 -591 637 -836 637 -847 0 -9 200 -58 638 -156 l637 -143 580
141 c319 78 588 142 597 143 10 1 20 7 23 14 10 27 127 170 155 192 17 12 42
45 56 74 15 29 59 85 97 125 39 40 71 80 72 90 1 9 93 134 205 277 112 143
217 278 234 299 l30 39 -297 -7 -297 -7 0 336 0 335 -38 0 c-34 0 -46 8 -120
83 l-82 82 35 19 c19 11 35 25 35 33 0 7 5 13 10 13 6 0 10 6 10 13 0 7 14 26
30 42 17 16 30 35 30 42 0 7 5 13 10 13 6 0 10 4 10 9 0 5 33 54 74 108 55 73
88 106 128 129 196 116 226 125 438 131 123 4 194 1 275 -11 61 -9 116 -16
123 -16 9 0 12 231 12 1088 l0 1089 -2560 0 -2560 0 0 -1164z m2568 -550 l-3
-168 -174 -33 c-129 -25 -176 -31 -181 -22 -4 7 -10 82 -14 168 -4 87 -10 172
-13 190 l-5 32 196 0 196 0 -2 -167z"/>
</g>
</svg>
