<svg id="Layer_1" data-name="Layer 1" xmlns="http://www.w3.org/2000/svg" viewBox="0 0 399 96"><defs><style>.cls-1{fill:#020101;}.cls-2{fill:#009245;}.cls-3{fill:#d8d8d8;}.cls-4{font-size:36px;font-family:BrushScriptMT, Brush Script MT;}</style></defs><title>Artboard 11 copy 2</title><rect class="cls-1" x="4" y="-0.49" width="390" height="92.49" rx="22.91"/><rect class="cls-2" x="4" y="-0.49" width="379.57" height="88.56" rx="22.91"/><path class="cls-3" d="M24.86,40.83c-.93,0-1.63-1-2.09-2-.49-1.88-3.58-15.49,16.68-24.6C60.9,4.63,92,7.43,95.76,8.36c.56.14,2.18.55,2.09,1s-2.47.88-4.17,1a15.59,15.59,0,0,1-2.09,0c-2.48-.16-34.74-.2-50.05,5.9C22.72,23.74,28.63,40.89,24.86,40.83Z"/><text class="cls-4" transform="translate(34.31 56.76)">Link til Dokumentationssite</text></svg>