<svg id="Layer_1" data-name="Layer 1" xmlns="http://www.w3.org/2000/svg" viewBox="0 0 313 123"><defs><style>.cls-1{fill:#020101;}.cls-2{fill:#009245;}.cls-3{fill:#d8d8d8;}</style></defs><title>buttom1</title><rect class="cls-1" x="4" y="14.51" width="298" height="96.49" rx="22.91"/><rect class="cls-2" x="4" y="14.51" width="290.03" height="92.39" rx="22.91"/><path class="cls-3" d="M19.94,57.62c-.71,0-1.25-1.09-1.6-2-.37-2-2.73-16.16,12.75-25.67,16.39-10,40.18-7.13,43-6.15.42.14,1.66.56,1.59,1s-1.88.93-3.19,1a10.3,10.3,0,0,1-1.59,0C69,25.63,44.38,25.59,32.68,32,18.3,39.79,22.82,57.68,19.94,57.62Z"/><path d="M54.06,55.42l.63.63a18.4,18.4,0,0,1-2.91,3A3.81,3.81,0,0,1,50,60q-.48,0-.48-.87c0-1.45,1-3.67,2.85-6.68a23.89,23.89,0,0,0,2.41-4.35c0-.25-.11-.38-.33-.38q-.57,0-2.85,2.55a90.2,90.2,0,0,0-5.64,7.2q-3.81,5.18-5.22,7.4a33.93,33.93,0,0,1,4.42.68q1.72.42,5,1.35A32.45,32.45,0,0,0,55,68c-1.27,1.44-2.14,2.42-2.62,2.94a4.11,4.11,0,0,1-1.1.94,3.11,3.11,0,0,1-1.8,0c-.8-.15-2.06-.45-3.79-.9s-3.34-.81-4.84-1.11a21.28,21.28,0,0,0-4.12-.45,6,6,0,0,0-1.81.25c-.51.16-1.21.43-2.1.8a6,6,0,0,1-1.89.55c-.53,0-.79-.21-.79-.64a1.65,1.65,0,0,1,.26-.83c.44-.72.88-1.4,1.29-2A6.1,6.1,0,0,1,33,66.05a5.11,5.11,0,0,1,2-.85,17.08,17.08,0,0,1,3.52-.33q3.3-5.06,6.15-9t5.19-6.61A31.46,31.46,0,0,1,54,45.22a5.22,5.22,0,0,1,2.79-1.39,1.42,1.42,0,0,1,1.54,1.54Q58.33,47.8,54.06,55.42Z"/><path d="M66.92,64.39v1.47a20.22,20.22,0,0,1-3.66,3.82A5.18,5.18,0,0,1,60.37,71a2.62,2.62,0,0,1-2.47-1.74,8.9,8.9,0,0,1-.81-3.8,7.36,7.36,0,0,1,.16-1.51,5.61,5.61,0,0,1,.39-1.18c.15-.31.42-.8.83-1.46,1.91-3,3.67-4.47,5.26-4.47.82,0,1.23.32,1.23,1a4.66,4.66,0,0,1-.8,2,9.07,9.07,0,0,1-1.42,2,32.26,32.26,0,0,0-2.3,2.36,2.36,2.36,0,0,0-.54,1.52,1.55,1.55,0,0,0,.55,1.21,2,2,0,0,0,1.42.49,4,4,0,0,0,2.09-.7A25.46,25.46,0,0,0,66.92,64.39Zm-1.37-9a1.43,1.43,0,0,1-1-.38,1.21,1.21,0,0,1-.46-1A3.38,3.38,0,0,1,65,52a2.35,2.35,0,0,1,1.76-1.1,1.42,1.42,0,0,1,1,.38,1.4,1.4,0,0,1,.41,1.08,3.23,3.23,0,0,1-.83,1.92A2.31,2.31,0,0,1,65.55,55.34Z"/><path d="M80.38,60.73c-2.38,2.64-3.56,4.48-3.56,5.52,0,.58.23.87.7.87a3.07,3.07,0,0,0,1.53-.62Q80,65.89,82,64.31V65.7q-2.86,2.83-4.41,4.09A4.5,4.5,0,0,1,75.08,71c-1.11,0-1.66-.73-1.66-2.18a4,4,0,0,1,.2-1.28,7.84,7.84,0,0,1,.56-1.3c.23-.45.59-1.1,1.08-1.94s1-1.8,1.68-2.87A12.7,12.7,0,0,0,74,63.8a24.8,24.8,0,0,0-1.92,2.07c-.52.66-1.09,1.39-1.69,2.19a17.65,17.65,0,0,1-1.31,1.62,1.24,1.24,0,0,1-.84.41c-.43,0-.83-.45-1.19-1.35a8.33,8.33,0,0,1-.55-3.16,4.78,4.78,0,0,1,.25-1.74,11.62,11.62,0,0,1,1-1.78,20.16,20.16,0,0,1,2.41-3.15,2.91,2.91,0,0,1,1.94-1,2.08,2.08,0,0,1,1,.23.71.71,0,0,1,.4.68.9.9,0,0,1-.12.43,1.91,1.91,0,0,1-.28.4c-.1.12-.31.36-.63.71Q69.36,63.9,69.35,65c0,.39.13.59.39.59s.47-.26.94-.78l1.8-2a30.6,30.6,0,0,1,2.61-2.64,26.93,26.93,0,0,1,3.43-2.65,3.34,3.34,0,0,1,1.78-.75c.21,0,.42.3.63.89a5.34,5.34,0,0,1,.32,1.8C81.25,59.67,81,60.12,80.38,60.73Z"/><path d="M97.13,64.39v1.35a41.39,41.39,0,0,1-3.81,4,4.32,4.32,0,0,1-2.57,1.36A3,3,0,0,1,89,70.54a5.58,5.58,0,0,1-1.43-1.62A30.29,30.29,0,0,1,86,66.05q-1,1.28-1.86,2.37c-.55.74-.94,1.23-1.15,1.47a.9.9,0,0,1-.59.36c-.36,0-.63-.23-.79-.69a6.66,6.66,0,0,1-.24-2A14.06,14.06,0,0,1,81.82,64a15.62,15.62,0,0,1,1.26-3.28,28.54,28.54,0,0,1,2.1-3.45q1.29-1.86,2.88-3.88,2.2-2.79,3.81-4.56a21.17,21.17,0,0,1,2.78-2.67,3.56,3.56,0,0,1,2-.9c.65,0,1,.29,1,.87S96.4,48.44,94,51.53,88.14,58.85,83.57,64.2v1.74a97.9,97.9,0,0,1,7.4-7.3q2.79-2.39,4.34-2.39a1.08,1.08,0,0,1,1,.74,4,4,0,0,1,.34,1.71,5.11,5.11,0,0,1-1.7,3.67,30,30,0,0,1-5.22,3.88,7.27,7.27,0,0,0,1.07,1.32A1.71,1.71,0,0,0,92,68a2.63,2.63,0,0,0,1.35-.43,10.18,10.18,0,0,0,1.49-1.07C95.3,66.06,96.07,65.36,97.13,64.39Zm-8,1a15.79,15.79,0,0,0,1.91-1.57,14.59,14.59,0,0,0,2-2.2,3.6,3.6,0,0,0,.81-1.92c0-.21-.1-.32-.28-.32a5.63,5.63,0,0,0-2.64,1.48,21.35,21.35,0,0,0-3.66,3.78A3.71,3.71,0,0,1,89.14,65.42Z"/><path d="M115.74,53.89h.87a11.08,11.08,0,0,1,1.94-2.72,2.82,2.82,0,0,1,2-.8c.74,0,1.12.17,1.12.5a4.24,4.24,0,0,1-.88,1.32,16.83,16.83,0,0,0-1.31,1.8l1.22.14.84.1a32.06,32.06,0,0,1-2.89,4.39l-.95-.07-.78-.06-1-.07c-.73,1.17-1.34,2.22-1.83,3.14A17.71,17.71,0,0,0,113,64.1a6.61,6.61,0,0,0-.4,2.19c0,.93.37,1.39,1.11,1.39a4,4,0,0,0,2-.82c.83-.54,1.94-1.38,3.33-2.51V65.7q-5.48,5.92-8.08,5.93a1.78,1.78,0,0,1-1.46-.71,2.86,2.86,0,0,1-.56-1.82,6.22,6.22,0,0,1,.31-1.78c.21-.69.59-1.73,1.13-3.12l-.54.48-.46.42-.46.41-.48.43V64.55a31.7,31.7,0,0,0,5.13-6.25l-.56,0h-.63a7.1,7.1,0,0,0-1.78.16l-.46.13a1,1,0,0,1-.29.07s-.08,0-.08-.12a4.47,4.47,0,0,1,.83-2,7.27,7.27,0,0,1,1.26-1.68,3.12,3.12,0,0,1,1.46-.74A11.6,11.6,0,0,1,115.74,53.89Z"/><path d="M128.67,64.39v1.47A20.55,20.55,0,0,1,125,69.68,5.18,5.18,0,0,1,122.11,71a2.62,2.62,0,0,1-2.47-1.74,8.9,8.9,0,0,1-.81-3.8,6.72,6.72,0,0,1,.17-1.51,5.12,5.12,0,0,1,.38-1.18c.15-.31.42-.8.83-1.46,1.91-3,3.67-4.47,5.26-4.47.82,0,1.23.32,1.23,1a4.66,4.66,0,0,1-.8,2,8.74,8.74,0,0,1-1.42,2,32.26,32.26,0,0,0-2.3,2.36,2.35,2.35,0,0,0-.53,1.52,1.54,1.54,0,0,0,.54,1.21,2,2,0,0,0,1.42.49,4,4,0,0,0,2.09-.7A26.28,26.28,0,0,0,128.67,64.39Zm-1.38-9a1.43,1.43,0,0,1-1-.38,1.21,1.21,0,0,1-.46-1,3.38,3.38,0,0,1,.85-2,2.35,2.35,0,0,1,1.76-1.1,1.42,1.42,0,0,1,1,.38,1.4,1.4,0,0,1,.41,1.08,3.23,3.23,0,0,1-.83,1.92A2.31,2.31,0,0,1,127.29,55.34Z"/><path d="M138.15,64.16v1.5q-4.23,5.61-6.88,5.6A2.49,2.49,0,0,1,129,69.7a8.88,8.88,0,0,1-.82-4.12,15.51,15.51,0,0,1,1-4.91,35.42,35.42,0,0,1,2.6-5.76,36.38,36.38,0,0,1,3.38-5.1,12.47,12.47,0,0,1,3.25-3,2,2,0,0,1,.95-.37.55.55,0,0,1,.56.38,3.85,3.85,0,0,1,.14,1.28A15,15,0,0,1,137.77,55a41.88,41.88,0,0,1-6.37,8.36,9.12,9.12,0,0,0-.21,1.62,3.65,3.65,0,0,0,.56,2.11,1.78,1.78,0,0,0,1.55.81,2,2,0,0,0,1.09-.4,10.73,10.73,0,0,0,1.23-1C136.06,66.1,136.9,65.32,138.15,64.16Zm-6.05-3.64a20.61,20.61,0,0,0,2-2.34A30.51,30.51,0,0,0,136,55.36a22,22,0,0,0,1.36-2.69,5.24,5.24,0,0,0,.5-1.8c0-.31-.11-.46-.32-.46a1.1,1.1,0,0,0-.47.22,13.12,13.12,0,0,0-2.77,3.95A23.93,23.93,0,0,0,132.1,60.52Z"/><path d="M149.52,65v-.48q5.22-5.51,7.18-7.71c.3-1.66,1-2.49,2.15-2.49a2.1,2.1,0,0,1,.91.24l.12.39a2.41,2.41,0,0,0-.08.69,6.74,6.74,0,0,0,.29,1.42c.2.7.35,1.28.46,1.75a7.73,7.73,0,0,1,.16,1.6,5.64,5.64,0,0,1-.61,2.56,8.55,8.55,0,0,1-1.76,2.35,19.09,19.09,0,0,1-3,2.29,7.45,7.45,0,0,0,1.15.12,4.48,4.48,0,0,0,1.79-.41,11.54,11.54,0,0,0,2-1.11c.67-.47,1.45-1.07,2.34-1.81V65.7A29.58,29.58,0,0,1,158,69.53a6.9,6.9,0,0,1-3.52,1.31,4.91,4.91,0,0,1-3.52-1.62,4.39,4.39,0,0,1-1.19-1.86A10.2,10.2,0,0,1,149.52,65Zm7.55-3.09-.37-3c-.83,1-2.62,2.76-5.36,5.45a3.46,3.46,0,0,1,1.66.7,11.07,11.07,0,0,1,1.26,1.72,4.88,4.88,0,0,0,2.11-1.54,4.39,4.39,0,0,0,.74-2.68c0-.14,0-.26,0-.37Z"/><path d="M169.63,53.89h.87a11.08,11.08,0,0,1,1.94-2.72,2.82,2.82,0,0,1,2-.8c.75,0,1.12.17,1.12.5a4.12,4.12,0,0,1-.87,1.32,17.14,17.14,0,0,0-1.32,1.8l1.23.14.84.1a32.18,32.18,0,0,1-2.9,4.39l-1-.07-.78-.06-1-.07c-.73,1.17-1.34,2.22-1.83,3.14a17.71,17.71,0,0,0-1.13,2.54,6.88,6.88,0,0,0-.4,2.19c0,.93.37,1.39,1.12,1.39a4,4,0,0,0,2-.82c.83-.54,1.94-1.38,3.33-2.51V65.7q-5.46,5.92-8.07,5.93a1.78,1.78,0,0,1-1.47-.71,2.86,2.86,0,0,1-.56-1.82,6.28,6.28,0,0,1,.32-1.78c.2-.69.58-1.73,1.12-3.12l-.54.48-.46.42-.46.41-.48.43V64.55a31.67,31.67,0,0,0,5.14-6.25l-.57,0h-.63a7.16,7.16,0,0,0-1.78.16l-.45.13a1.06,1.06,0,0,1-.3.07c-.05,0-.08,0-.08-.12a4.47,4.47,0,0,1,.83-2,7.27,7.27,0,0,1,1.27-1.68,3,3,0,0,1,1.45-.74A11.67,11.67,0,0,1,169.63,53.89Z"/><path d="M182.56,64.39v1.47a20.86,20.86,0,0,1-3.66,3.82A5.23,5.23,0,0,1,176,71a2.63,2.63,0,0,1-2.47-1.74,8.9,8.9,0,0,1-.81-3.8,6.72,6.72,0,0,1,.17-1.51,5.12,5.12,0,0,1,.38-1.18c.15-.31.43-.8.83-1.46q2.88-4.47,5.26-4.47c.82,0,1.23.32,1.23,1a4.66,4.66,0,0,1-.8,2,8.74,8.74,0,0,1-1.42,2c-1.17,1.13-1.94,1.92-2.3,2.36a2.4,2.4,0,0,0-.53,1.52,1.54,1.54,0,0,0,.54,1.21,2,2,0,0,0,1.42.49,4,4,0,0,0,2.09-.7A26.28,26.28,0,0,0,182.56,64.39Zm-1.38-9a1.43,1.43,0,0,1-1-.38,1.24,1.24,0,0,1-.46-1,3.38,3.38,0,0,1,.85-2,2.35,2.35,0,0,1,1.76-1.1,1.45,1.45,0,0,1,1,.38,1.4,1.4,0,0,1,.4,1.08,3.23,3.23,0,0,1-.83,1.92A2.31,2.31,0,0,1,181.18,55.34Z"/><path d="M192,64.16v1.5c-2.81,3.74-5.11,5.6-6.87,5.6a2.5,2.5,0,0,1-2.26-1.56,8.88,8.88,0,0,1-.82-4.12,15.8,15.8,0,0,1,1-4.91,38.6,38.6,0,0,1,6-10.86,12.63,12.63,0,0,1,3.25-3,2,2,0,0,1,1-.37.55.55,0,0,1,.56.38,3.79,3.79,0,0,1,.15,1.28A15,15,0,0,1,191.66,55a41.5,41.5,0,0,1-6.37,8.36,8.91,8.91,0,0,0-.2,1.62,3.65,3.65,0,0,0,.55,2.11,1.78,1.78,0,0,0,1.55.81,2,2,0,0,0,1.09-.4,11.7,11.7,0,0,0,1.24-1Zm-6-3.64a21.6,21.6,0,0,0,2-2.34,30.51,30.51,0,0,0,1.85-2.82,23.71,23.71,0,0,0,1.37-2.69,5.17,5.17,0,0,0,.49-1.8c0-.31-.11-.46-.32-.46a1.15,1.15,0,0,0-.47.22,13.3,13.3,0,0,0-2.77,3.95A23.89,23.89,0,0,0,186,60.52Z"/><path d="M194.23,60.77a24.23,24.23,0,0,1,6-4.15,11.59,11.59,0,0,1,4.47-1.36,1.13,1.13,0,0,1,.79.36,2.63,2.63,0,0,1,.57.82,2,2,0,0,1,.22.68.58.58,0,0,1-.29.54,6.06,6.06,0,0,1-1,.41c.1.22.22.5.36.83s.27.61.35.82a1.61,1.61,0,0,1,.12.56,4.3,4.3,0,0,1-1,1.81q-1,1.32-1.38,2a2.86,2.86,0,0,0-.39,1.54c0,1,.46,1.5,1.37,1.5s2.43-.89,4.43-2.65v1.23q-5.11,5.69-7.32,5.69a1.24,1.24,0,0,1-1.12-.52,2.85,2.85,0,0,1-.33-1.53,14.35,14.35,0,0,1,1.15-4.63c-2,2.18-3.43,3.74-4.39,4.66a4,4,0,0,1-2.37,1.39c-.29,0-.67-.26-1.11-.77a7.22,7.22,0,0,1-1.18-2,6.41,6.41,0,0,1-.52-2.54,5.9,5.9,0,0,1,.18-1.59,3.82,3.82,0,0,1,.71-1.3A16.46,16.46,0,0,1,194.23,60.77Zm9.69-2.23a44,44,0,0,0-7.5,4.09c-1.49,1.12-2.23,2.27-2.23,3.46a2.22,2.22,0,0,0,.22,1.06.68.68,0,0,0,.61.41,2.17,2.17,0,0,0,.79-.28A16.08,16.08,0,0,0,199.69,64Q201.45,62,203.92,58.54Z"/><path d="M208.47,65.94V64.63a19.42,19.42,0,0,0,1.66-2.21,2.18,2.18,0,0,1-.94-.54,1.39,1.39,0,0,1-.29-1,4.1,4.1,0,0,1,.6-1.84A10.82,10.82,0,0,1,211,57a4.58,4.58,0,0,1,1.62-1.25,1.14,1.14,0,0,1,.54-.14c.27,0,.41.12.41.38a3.82,3.82,0,0,1-.63,1.4,48.78,48.78,0,0,1,5.26-.65,1.58,1.58,0,0,1,.59.08,1.39,1.39,0,0,1,.56.85,4.19,4.19,0,0,1,.23,1.34,1.58,1.58,0,0,1-.38.92,19.25,19.25,0,0,1-1.28,1.44,11.79,11.79,0,0,0-1.8,2.51,4.91,4.91,0,0,0-.73,2c0,.64.39.95,1.17.95s2.25-.83,4.29-2.5V65.7c-1.12,1.17-2,2.1-2.77,2.77a14.73,14.73,0,0,1-2,1.61,3.18,3.18,0,0,1-1.66.6A1.7,1.7,0,0,1,213,69.9a3.79,3.79,0,0,1-.56-2.26,5.33,5.33,0,0,1,.44-2,13.66,13.66,0,0,1,1.31-2.42,29,29,0,0,1,1.93-2.6c-.38.09-.81.17-1.28.26l-1.49.27-1.22.22A14.51,14.51,0,0,1,208.47,65.94Z"/><path d="M227.87,53.89h.87a11.36,11.36,0,0,1,1.94-2.72,2.82,2.82,0,0,1,2-.8c.74,0,1.11.17,1.11.5a4.12,4.12,0,0,1-.87,1.32,17.14,17.14,0,0,0-1.32,1.8l1.23.14.84.1a32.18,32.18,0,0,1-2.9,4.39l-.95-.07-.78-.06-1-.07c-.73,1.17-1.34,2.22-1.83,3.14a17.71,17.71,0,0,0-1.13,2.54,6.88,6.88,0,0,0-.4,2.19c0,.93.38,1.39,1.12,1.39a4,4,0,0,0,2-.82c.83-.54,1.94-1.38,3.33-2.51V65.7q-5.46,5.92-8.07,5.93a1.78,1.78,0,0,1-1.47-.71,2.86,2.86,0,0,1-.56-1.82,6.28,6.28,0,0,1,.32-1.78c.21-.69.58-1.73,1.12-3.12l-.54.48-.46.42-.46.41-.48.43V64.55a31.67,31.67,0,0,0,5.14-6.25l-.57,0h-.63a7.16,7.16,0,0,0-1.78.16l-.45.13a1,1,0,0,1-.3.07s-.08,0-.08-.12a4.47,4.47,0,0,1,.83-2A7.27,7.27,0,0,1,224,54.82a3,3,0,0,1,1.45-.74A11.67,11.67,0,0,1,227.87,53.89Z"/><path d="M231.05,65v-.48q5.22-5.51,7.18-7.71c.29-1.66,1-2.49,2.14-2.49a2,2,0,0,1,.91.24l.12.39a2.41,2.41,0,0,0-.08.69,6.33,6.33,0,0,0,.3,1.42c.19.7.34,1.28.45,1.75a7.1,7.1,0,0,1,.16,1.6,5.76,5.76,0,0,1-.6,2.56,8.75,8.75,0,0,1-1.76,2.35,18.74,18.74,0,0,1-3,2.29,7.56,7.56,0,0,0,1.16.12,4.48,4.48,0,0,0,1.79-.41,11.93,11.93,0,0,0,2-1.11c.67-.47,1.45-1.07,2.34-1.81V65.7a29.6,29.6,0,0,1-4.64,3.83A6.87,6.87,0,0,1,236,70.84a4.92,4.92,0,0,1-3.52-1.62,4.36,4.36,0,0,1-1.18-1.86A9.69,9.69,0,0,1,231.05,65Zm7.54-3.09-.36-3c-.84,1-2.62,2.76-5.36,5.45a3.46,3.46,0,0,1,1.66.7,11.93,11.93,0,0,1,1.25,1.72,4.82,4.82,0,0,0,2.11-1.54,4.33,4.33,0,0,0,.74-2.68c0-.14,0-.26,0-.37A1.73,1.73,0,0,0,238.59,61.86Z"/><path d="M253.72,64.39v1.47a20.22,20.22,0,0,1-3.66,3.82A5.18,5.18,0,0,1,247.17,71a2.62,2.62,0,0,1-2.47-1.74,8.9,8.9,0,0,1-.81-3.8,7.36,7.36,0,0,1,.16-1.51,5.61,5.61,0,0,1,.39-1.18c.15-.31.42-.8.83-1.46,1.91-3,3.67-4.47,5.26-4.47.82,0,1.23.32,1.23,1a4.66,4.66,0,0,1-.8,2,9.07,9.07,0,0,1-1.42,2,32.26,32.26,0,0,0-2.3,2.36,2.36,2.36,0,0,0-.54,1.52,1.55,1.55,0,0,0,.55,1.21,2,2,0,0,0,1.42.49,4,4,0,0,0,2.09-.7A25.46,25.46,0,0,0,253.72,64.39Zm-1.37-9a1.43,1.43,0,0,1-1-.38,1.21,1.21,0,0,1-.46-1,3.38,3.38,0,0,1,.85-2,2.35,2.35,0,0,1,1.76-1.1,1.42,1.42,0,0,1,1,.38,1.4,1.4,0,0,1,.41,1.08,3.23,3.23,0,0,1-.83,1.92A2.31,2.31,0,0,1,252.35,55.34Z"/><path d="M260.64,53.89h.87a11.36,11.36,0,0,1,1.94-2.72,2.84,2.84,0,0,1,2-.8c.74,0,1.11.17,1.11.5a4.12,4.12,0,0,1-.87,1.32,17.14,17.14,0,0,0-1.32,1.8l1.23.14.84.1a32.06,32.06,0,0,1-2.89,4.39l-1-.07-.77-.06-1-.07c-.72,1.17-1.33,2.22-1.83,3.14a17.71,17.71,0,0,0-1.13,2.54,6.85,6.85,0,0,0-.39,2.19c0,.93.37,1.39,1.11,1.39a4,4,0,0,0,2-.82c.83-.54,1.94-1.38,3.33-2.51V65.7q-5.46,5.92-8.07,5.93a1.78,1.78,0,0,1-1.47-.71,2.86,2.86,0,0,1-.55-1.82,6.22,6.22,0,0,1,.31-1.78c.21-.69.58-1.73,1.12-3.12-.19.17-.37.32-.53.48l-.47.42-.45.41-.49.43V64.55a31.32,31.32,0,0,0,5.14-6.25l-.57,0h-.63a7.21,7.21,0,0,0-1.78.16l-.45.13a1,1,0,0,1-.29.07q-.09,0-.09-.12a4.47,4.47,0,0,1,.83-2,7.27,7.27,0,0,1,1.27-1.68,3.08,3.08,0,0,1,1.46-.74A11.49,11.49,0,0,1,260.64,53.89Z"/><path d="M267.14,65.11v.51a2.71,2.71,0,0,0,.58,1.86,1.94,1.94,0,0,0,1.54.67,5.08,5.08,0,0,0,2.05-.47,11.27,11.27,0,0,0,2.12-1.23c.7-.51,1.56-1.2,2.57-2.06v1.23a25.79,25.79,0,0,1-4.29,4.22,6.83,6.83,0,0,1-4.07,1.47,3.38,3.38,0,0,1-2.85-1.4,6.23,6.23,0,0,1-1.05-3.82,7.65,7.65,0,0,1,1-3.86A14.61,14.61,0,0,1,268,58.58a12.16,12.16,0,0,1,3-2,6.79,6.79,0,0,1,2.71-.67,2.38,2.38,0,0,1,1.51.44,1.54,1.54,0,0,1,.55,1.3,4.17,4.17,0,0,1-1,2.54,11,11,0,0,1-2.9,2.51A29,29,0,0,1,267.14,65.11Zm.2-1.31A11.48,11.48,0,0,0,270.45,62a9,9,0,0,0,1.92-2,3.14,3.14,0,0,0,.61-1.41c0-.31-.14-.46-.42-.46a2.93,2.93,0,0,0-1.19.46,10.47,10.47,0,0,0-1.65,1.21,8.92,8.92,0,0,0-1.51,1.76A5.57,5.57,0,0,0,267.34,63.8Z"/></svg>