<svg id="Layer_1" data-name="Layer 1" xmlns="http://www.w3.org/2000/svg" viewBox="0 0 470 143"><defs><style>.cls-1{fill:#020101;}.cls-2{fill:#009245;}.cls-3{fill:#d8d8d8;}.cls-4{font-size:36px;font-family:BrushScriptMT, Brush Script MT;}</style></defs><title>Artboard 11 copy</title><rect class="cls-1" x="4" y="14.51" width="428" height="92.49" rx="22.91"/><rect class="cls-2" x="4" y="14.51" width="416.56" height="88.56" rx="22.91"/><path class="cls-3" d="M26.89,55.83c-1,0-1.79-1-2.29-2-.54-1.88-3.93-15.49,18.31-24.6,23.53-9.64,57.7-6.84,61.8-5.91.61.14,2.38.55,2.28,1s-2.7.88-4.57,1a18.61,18.61,0,0,1-2.29,0c-2.72-.16-38.14-.2-54.93,5.9C24.54,38.74,31,55.89,26.89,55.83Z"/><text class="cls-4" transform="translate(47.31 68.76)">Link til det færdige stilartsite</text></svg>