<svg id="Layer_1" data-name="Layer 1" xmlns="http://www.w3.org/2000/svg" viewBox="0 0 387 98"><defs><style>.cls-1{fill:#020101;}.cls-2{fill:#009245;}.cls-3{fill:#d8d8d8;}.cls-4{font-size:36px;font-family:BrushScriptMT, Brush Script MT;}</style></defs><title>Artboard 11 copy 4</title><rect class="cls-1" x="4" y="3.51" width="383" height="94.49" rx="22.91"/><rect class="cls-2" x="4" y="3.51" width="372.76" height="90.47" rx="22.91"/><path class="cls-3" d="M24.48,45.73c-.91,0-1.59-1.07-2.05-2C22,41.8,18.92,27.89,38.82,18.59c21.06-9.85,51.63-7,55.3-6,.55.15,2.13.56,2,1s-2.43.91-4.1,1a15,15,0,0,1-2,0c-2.43-.16-34.12-.2-49.15,6C22.38,28.26,28.19,45.78,24.48,45.73Z"/><text class="cls-4" transform="translate(38.31 56.76)">Link til dokumentationssite</text></svg>