<svg id="Layer_1" data-name="Layer 1" xmlns="http://www.w3.org/2000/svg" viewBox="0 0 332 98"><defs><style>.cls-1{fill:#020101;}.cls-2{fill:#009245;}.cls-3{fill:#d8d8d8;}.cls-4{font-size:36px;font-family:BrushScriptMT, Brush Script MT;}</style></defs><title>Artboard 11 copy 5</title><rect class="cls-1" x="4" y="3.51" width="324" height="94.49" rx="22.91"/><rect class="cls-2" x="4" y="3.51" width="315.34" height="90.47" rx="22.91"/><path class="cls-3" d="M21.33,45.73c-.77,0-1.35-1.07-1.74-2-.4-1.92-3-15.83,13.86-25.13,17.82-9.85,43.69-7,46.79-6,.46.15,1.8.56,1.73,1s-2,.91-3.47,1a10.63,10.63,0,0,1-1.73,0c-2.06-.16-28.87-.2-41.58,6C19.55,28.26,24.46,45.78,21.33,45.73Z"/><text class="cls-4" transform="translate(42.31 60.76)">Link til mit eget spil</text></svg>