<svg id="Layer_1" data-name="Layer 1" xmlns="http://www.w3.org/2000/svg" xmlns:xlink="http://www.w3.org/1999/xlink" viewBox="0 0 169 98"><defs><style>.cls-1{fill:#020101;}.cls-2{fill:url(#Purple_Orange);}.cls-3{fill:#d8d8d8;}.cls-4{font-size:36px;font-family:BrushScriptMT, Brush Script MT;}.cls-5{letter-spacing:-0.01em;}.cls-6{letter-spacing:-0.03em;}</style><linearGradient id="Purple_Orange" x1="4" y1="46.83" x2="161.67" y2="46.83" gradientUnits="userSpaceOnUse"><stop offset="0" stop-color="#7f47dd"/><stop offset="0.52" stop-color="#fbae17"/><stop offset="1" stop-color="#fbae17"/></linearGradient></defs><title>Artboard 11 copy 7</title><rect class="cls-1" x="4" y="3.51" width="162" height="90.49" rx="22.91"/><rect class="cls-2" x="4" y="3.51" width="157.67" height="86.64" rx="22.91"/><path class="cls-3" d="M12.66,43.94c-.38,0-.67-1-.86-1.93-.21-1.83-1.49-15.15,6.93-24.06,8.9-9.43,21.84-6.69,23.39-5.78.23.14.9.53.86,1s-1,.87-1.73,1a3.52,3.52,0,0,1-.86,0c-1-.17-14.44-.2-20.8,5.77C11.78,27.21,14.23,44,12.66,43.94Z"/><text class="cls-4" transform="translate(27.31 56.76)"><tspan class="cls-5">K</tspan><tspan x="23.13" y="0">ea</tspan><tspan class="cls-6" x="48.25" y="0"> </tspan><tspan x="57.43" y="0">App</tspan></text></svg>