<svg id="Layer_1" data-name="Layer 1" xmlns="http://www.w3.org/2000/svg" xmlns:xlink="http://www.w3.org/1999/xlink" viewBox="0 0 279 94"><defs><style>.cls-1{fill:#020101;}.cls-2{fill:url(#Purple_Orange);}.cls-3{fill:#d8d8d8;}.cls-4{font-size:48px;font-family:BrushScriptMT, Brush Script MT;}</style><linearGradient id="Purple_Orange" x1="4" y1="46.83" x2="271.65" y2="46.83" gradientUnits="userSpaceOnUse"><stop offset="0" stop-color="#7f47dd"/><stop offset="0.52" stop-color="#fbae17"/><stop offset="1" stop-color="#fbae17"/></linearGradient></defs><title>Artboard 11 copy 6</title><rect class="cls-1" x="4" y="3.51" width="275" height="90.49" rx="22.91"/><rect class="cls-2" x="4" y="3.51" width="267.65" height="86.64" rx="22.91"/><path class="cls-3" d="M18.71,43.94c-.66,0-1.15-1-1.47-1.93C16.89,40.18,14.71,26.86,29,18c15.12-9.43,37.08-6.69,39.71-5.78.39.14,1.53.53,1.47,1s-1.74.87-2.94,1a10.43,10.43,0,0,1-1.48,0c-1.74-.17-24.5-.2-35.29,5.77C17.2,27.21,21.37,44,18.71,43.94Z"/><text class="cls-4" transform="translate(35.31 59.76)">Link til pitch</text></svg>