<svg id="Layer_1" data-name="Layer 1" xmlns="http://www.w3.org/2000/svg" viewBox="0 0 393 100"><defs><style>.cls-1{fill:#020101;}.cls-2{fill:#c69c6d;}.cls-3{fill:#d8d8d8;}.cls-4{font-size:48px;font-family:BrushScriptMT, Brush Script MT;}.cls-5{letter-spacing:-0.01em;}.cls-6{letter-spacing:-0.03em;}</style></defs><title>Artboard 11 copy 8</title><rect class="cls-1" x="4" y="3.51" width="389" height="96.49" rx="22.91"/><rect class="cls-2" x="4" y="3.51" width="378.6" height="92.39" rx="22.91"/><path class="cls-3" d="M24.8,46.62c-.92,0-1.62-1.09-2.08-2-.49-2-3.57-16.16,16.64-25.67,21.39-10,52.45-7.13,56.17-6.15.56.14,2.17.56,2.08,1s-2.46.93-4.16,1a17.55,17.55,0,0,1-2.08,0c-2.47-.17-34.66-.21-49.93,6.16C22.67,28.79,28.57,46.68,24.8,46.62Z"/><text class="cls-4" transform="translate(34.31 59.76)">Simp<tspan class="cls-5" x="87.96" y="0">l</tspan><tspan x="98.32" y="0">y Cooking</tspan><tspan class="cls-6" x="253.36" y="0"> </tspan><tspan x="265.59" y="0">App</tspan></text></svg>